PathFileType	4	(X/Y/Z)	C:/Users/opensim2020/Desktop/walking_exp_matlab/subject06_walking15_straight_04.trc	
DataRate	CameraRate	NumFrames	NumMarkers	Units	OrigDataRate	OrigDataStartFrame	OrigNumFrames	
100.00	100.00	4	47	mm	100.00	2881	157	
Frame#	Time	LFHD			RFHD			LBHD			RBHD			C7			T10			CLAV			STRN			RBAK			LSHO			LUPA			LELB			LFRM			LWRA			LWRB			LFIN			RSHO			RUPA			RELB			RFRM			RWRA			RWRB			RFIN			LASI			RASI			LPSI			RPSI			LTHI			LKNE			LTIB			LANK			LHEE			LTOE			RTHI			RKNE			RTIB			RANK			RHEE			RTOE			*39			*40			*41			*42			*43			*44			*45			*46			
		X1	Y1	Z1	X2	Y2	Z2	X3	Y3	Z3	X4	Y4	Z4	X5	Y5	Z5	X6	Y6	Z6	X7	Y7	Z7	X8	Y8	Z8	X9	Y9	Z9	X10	Y10	Z10	X11	Y11	Z11	X12	Y12	Z12	X13	Y13	Z13	X14	Y14	Z14	X15	Y15	Z15	X16	Y16	Z16	X17	Y17	Z17	X18	Y18	Z18	X19	Y19	Z19	X20	Y20	Z20	X21	Y21	Z21	X22	Y22	Z22	X23	Y23	Z23	X24	Y24	Z24	X25	Y25	Z25	X26	Y26	Z26	X27	Y27	Z27	X28	Y28	Z28	X29	Y29	Z29	X30	Y30	Z30	X31	Y31	Z31	X32	Y32	Z32	X33	Y33	Z33	X34	Y34	Z34	X35	Y35	Z35	X36	Y36	Z36	X37	Y37	Z37	X38	Y38	Z38	X39	Y39	Z39	X40	Y40	Z40	X41	Y41	Z41	X42	Y42	Z42	X43	Y43	Z43	X44	Y44	Z44	X45	Y45	Z45	X46	Y46	Z46	X47	Y47	Z47	

20	0.190	-892.95996	824.83075	1639.91382	-1022.07465	796.81854	1632.81763	-922.12476	952.96436	1581.19629	-1048.30640	923.79688	1579.39478	-967.13269	938.78741	1428.14783	-972.31677	973.29303	1099.16211	-961.32043	826.85229	1352.72900	-948.94031	787.63879	1179.59888	-1042.25293	1009.55078	1258.13196	-803.34180	887.97308	1387.91101	-720.37317	853.64575	1194.02136	-702.03217	823.49402	1086.30884	-690.65161	710.61261	989.63733	-746.56189	593.49713	956.17877	-708.79199	626.48669	906.47723	-713.85284	539.16364	886.01215	-1125.30139	867.01398	1380.25647	-1211.96265	939.14972	1193.66553	-1226.31030	955.18054	1072.25781	-1246.54333	966.28229	952.72742	-1219.45703	938.44977	802.01837	-1259.84473	992.19269	817.58514	-1262.39148	976.25122	734.15405	-855.87323	802.51422	938.36145	-1076.25159	784.72913	953.65009	-899.58026	958.24182	964.93365	-1066.58020	938.84534	969.94604	-814.58258	914.45276	629.10828	-837.64709	952.38062	468.05063	-847.30042	1078.53040	240.59181	-894.01013	1147.17480	82.61884	-939.03796	1190.90869	78.74696	-893.80255	1012.69977	33.05815	-1153.92896	770.09631	625.57483	-1125.95496	726.81128	508.95850	-1136.21228	687.20673	249.68875	-1099.81750	630.47644	69.37247	-1053.55432	656.53772	34.38429	-1101.01831	473.28848	76.29726	-971.23450	911.63647	1677.00037																					 
21	0.200	-895.05377	814.01367	1639.22900	-1024.15662	785.94788	1631.91528	-924.21039	942.20636	1580.54004	-1050.50110	913.09338	1578.59412	-969.11572	928.23993	1427.24500	-974.27246	961.72253	1098.23132	-963.24933	816.04547	1352.04810	-950.86719	776.25336	1179.13977	-1043.98108	998.60126	1257.08582	-805.31793	877.24713	1387.09290	-722.34064	843.06830	1193.29309	-703.98480	813.20197	1085.55554	-692.85919	699.59735	990.04810	-749.10413	582.28766	958.08423	-711.22357	614.49506	907.94891	-716.87854	526.86029	888.34125	-1127.20959	856.42517	1379.44128	-1213.67749	928.09460	1192.50842	-1227.99341	943.58875	1071.06958	-1248.18030	954.37921	951.48248	-1221.11890	926.07953	800.87109	-1261.55530	980.03693	816.40112	-1264.09082	963.70105	732.94751	-857.54077	790.87732	937.60602	-1078.31873	772.69568	953.11041	-901.67023	946.52777	964.24915	-1068.70251	926.85126	969.50525	-816.05847	904.21338	628.54608	-838.63208	942.77374	467.62009	-847.39636	1073.24097	242.48294	-893.13843	1145.56360	85.93099	-938.14526	1189.72461	83.34293	-893.98077	1012.43768	32.97221	-1153.91187	757.89362	625.50909	-1125.63525	714.81879	509.06750	-1136.04529	680.17621	247.63969	-1098.77783	628.10486	66.46334	-1052.09033	654.68829	33.81836	-1101.07019	470.72491	67.90102	-973.40387	900.76843	1676.21985																					 
22	0.210	-897.11035	803.17932	1638.87708	-1026.28027	775.06970	1631.44055	-926.27722	931.37598	1580.07935	-1052.58264	902.23718	1578.02136	-971.14801	917.61334	1426.59924	-976.44672	949.81934	1097.46167	-965.25684	805.09955	1351.70850	-953.02289	764.69653	1178.84766	-1045.86902	987.73621	1256.11499	-807.38568	866.59668	1386.48315	-724.35559	832.54163	1192.57178	-705.99994	803.10535	1084.76587	-695.01190	688.92566	990.13434	-751.69910	571.49445	959.42047	-713.83136	603.07281	909.09540	-719.49585	515.13116	890.50024	-1129.30286	845.87958	1378.91248	-1215.47742	916.81067	1191.43396	-1229.76367	931.87274	1070.01550	-1249.86780	942.17249	950.39148	-1222.70520	913.40735	799.76422	-1262.97949	967.19806	815.04175	-1265.74426	950.63696	731.87689	-859.29169	778.98151	937.16534	-1080.36633	760.32947	952.57800	-903.79333	934.80579	963.84546	-1071.23376	914.77527	969.44031	-817.60620	893.65643	628.08698	-839.92279	932.80066	467.26117	-847.48035	1067.62708	244.68840	-892.06708	1143.58557	89.69690	-936.62537	1187.71448	87.79705	-893.96967	1012.01318	33.03394	-1154.26782	745.91199	625.61029	-1125.34509	703.68909	509.01639	-1134.95618	673.49426	246.41852	-1098.70862	624.05621	66.56835	-1051.41235	651.60791	36.41358	-1102.55811	466.14224	58.72377	-975.56860	889.94989	1675.79041																					 
23	0.220	-899.14606	792.38654	1639.24219	-1028.30469	764.18475	1631.80261	-928.32690	920.44562	1580.17053	-1054.63684	891.24347	1578.09644	-973.28040	906.95929	1426.78235	-977.96985	937.98718	1097.02283	-967.39978	794.15009	1352.00476	-955.24170	753.53967	1179.05872	-1047.75488	976.81567	1255.29919	-809.27258	856.00385	1386.18811	-726.42224	822.22919	1191.88843	-707.90778	793.16022	1084.04053	-697.32153	678.75519	990.08148	-754.21985	561.17023	960.23761	-716.07697	592.26447	909.72113	-722.38293	504.24158	891.64435	-1131.55334	835.34021	1378.80579	-1217.46777	905.36920	1190.70862	-1231.58997	919.64740	1069.20044	-1251.52014	929.68915	949.46387	-1224.35620	900.24133	799.06946	-1264.53308	954.15332	814.04968	-1267.35242	937.13464	731.05438	-861.01495	766.99164	937.02917	-1082.41125	748.22296	952.54260	-905.72333	922.80841	963.75476	-1073.52844	902.65961	970.05103	-819.37299	882.72229	627.72644	-841.50360	922.37451	467.14264	-847.73633	1061.39685	247.25397	-890.76526	1141.02661	93.98037	-935.05829	1185.76025	93.61110	-893.73297	1011.71387	33.07466	-1155.25183	734.58484	626.09393	-1126.75537	693.38049	509.51004	-1136.98755	664.75476	247.12051	-1100.47571	618.51294	67.13013	-1053.19360	648.32892	38.22602	-1103.56165	461.50623	53.88588	-977.65607	879.15973	1675.87854																					 
